<svg width="68" height="68" viewBox="0 0 68 68" fill="none" xmlns="http://www.w3.org/2000/svg">
<g filter="url(#filter0_d_10_85)">
<path d="M33.9322 10C21.3158 10 10.9847 19.6694 10 31.9618L22.8692 37.2545C23.9591 36.5112 25.2755 36.0819 26.6972 36.0819C26.8236 36.0819 26.95 36.0871 27.0764 36.0923L32.8001 27.8364C32.8001 27.7997 32.8001 27.7579 32.8001 27.7212C32.8001 22.7582 36.8652 18.7166 41.8569 18.7166C46.8487 18.7166 50.9137 22.7582 50.9137 27.7212C50.9137 32.6841 46.8487 36.7258 41.8569 36.7258C41.7885 36.7258 41.7201 36.7258 41.6516 36.7205L33.4846 42.5159C33.4899 42.6206 33.4899 42.7305 33.4899 42.8353C33.4899 46.5628 30.4412 49.594 26.692 49.594C23.4011 49.594 20.6523 47.259 20.0257 44.165L10.8267 40.38C13.6754 50.4002 22.9376 57.7504 33.9322 57.7504C47.1962 57.7504 57.9434 47.0601 57.9434 33.8778C57.9434 20.6903 47.191 10 33.9322 10Z" fill="white"/>
<path d="M25.0485 46.2275L22.0999 45.0182C22.6211 46.1019 23.5268 47.0075 24.7273 47.505C27.3234 48.5782 30.3142 47.3532 31.3988 44.7721C31.9201 43.5209 31.9255 42.1441 31.4042 40.8929C30.8882 39.6416 29.9087 38.6627 28.6502 38.1444C27.4022 37.6261 26.0648 37.6471 24.8906 38.0868L27.9394 39.338C29.8561 40.1337 30.7618 42.3168 29.9614 44.2225C29.161 46.1176 26.9652 47.0181 25.0485 46.2275Z" fill="white"/>
<path d="M47.8918 27.7211C47.8918 24.4124 45.1852 21.7216 41.8573 21.7216C38.5295 21.7216 35.823 24.4124 35.823 27.7211C35.823 31.0297 38.5295 33.7207 41.8573 33.7207C45.1852 33.7207 47.8918 31.0297 47.8918 27.7211ZM37.3342 27.7107C37.3342 25.2239 39.3667 23.2031 41.8679 23.2031C44.369 23.2031 46.4016 25.2187 46.4016 27.7107C46.4016 30.1973 44.3744 32.2182 41.8679 32.2182C39.3615 32.2182 37.3342 30.2026 37.3342 27.7107Z" fill="white"/>
</g>
<defs>
<filter id="filter0_d_10_85" x="0" y="0" width="67.9434" height="67.7505" filterUnits="userSpaceOnUse" color-interpolation-filters="sRGB">
<feFlood flood-opacity="0" result="BackgroundImageFix"/>
<feColorMatrix in="SourceAlpha" type="matrix" values="0 0 0 0 0 0 0 0 0 0 0 0 0 0 0 0 0 0 127 0" result="hardAlpha"/>
<feOffset/>
<feGaussianBlur stdDeviation="5"/>
<feColorMatrix type="matrix" values="0 0 0 0 0 0 0 0 0 0 0 0 0 0 0 0 0 0 0.95 0"/>
<feBlend mode="normal" in2="BackgroundImageFix" result="effect1_dropShadow_10_85"/>
<feBlend mode="normal" in="SourceGraphic" in2="effect1_dropShadow_10_85" result="shape"/>
</filter>
</defs>
</svg>
